<?xml version="1.0" encoding="UTF-8"?>
<svg id="Capa_1" data-name="Capa 1" xmlns="http://www.w3.org/2000/svg" viewBox="0 0 284.93 99.96">
  <defs>
    <style>
      .cls-1 {
        fill: none;
      }
    </style>
  </defs>
  <path class="cls-1" d="M19.42,64.58c-4.35-1.08-7.86-.72-13.77-.7v14.06c6.31-.44,12.7,1.21,16.8-3.08,1.66-3.1,1.41-9.36-3.03-10.29Z"/>
  <path d="M37.61,19.55c-.19-2.7-3.32-2.13-5.42-2.09-3.77,.08-11.34,0-15.11,0-.66,0-2.8,0-3.43,0-2.6-.05-2.56,4.08,.05,3.98,5.88,0,13.99,0,19.88,0-1.6,19.75-28.23,18.24-29.57-.8C3.16,12.35,10.53,3.57,19.02,4.04c3.88,.13,7.07,1.39,9.59,3.78,1.87,1.83,4.65-1.13,2.73-2.88C18.88-6.74-1.45,4.18,.08,20.94c2.21,25.53,38.01,24.57,37.53-1.39Z"/>
  <path d="M48.39,36.25c-.72,4.5,4.09,4.56,3.98,1.14,0-10.72-.08-23.96-.05-34.99,.05-3.47-4.7-3.26-3.98,1.14-.03,10.19,.05,22.84,.05,32.7Z"/>
  <path d="M278.12,23.9c1.56-.6,5.53-2.1,5.57-2.14,1.66-.54,1.66-3.19,0-3.73-.07,0-35.8-13.54-35.83-13.57-1.03-.41-2.22,.15-2.58,1.19-.42,.99,.18,2.19,1.19,2.53,.03,.03,30.91,11.73,30.91,11.73-.99,.89-31.47,10.97-32.11,13.35-.34,1.43,1.26,2.98,2.73,2.26,.03-.03,30.12-11.63,30.12-11.63Z"/>
  <path d="M129.68,37.39c.01-7.21,0-29.44-.1-35.44,.05-2.57-4.03-2.58-3.98,0,.07,5.4,.1,11.87,.1,17.59-4.58-4.41-11.9-11.36-16.2-15.46-1.03-.99-1.91-1.82-2.63-2.49-.7-.64-1.25-1.69-2.34-1.59-2.04-.08-2.1,2.01-1.99,3.53,0,0,.15,31.41,.15,32.5v1.14c-.36,3.1,4.33,3.13,3.98,0,0-2.33-.12-25.48-.15-30.42,.5,.38,18,17.11,19.13,18.19,0,2.27,.05,11.38,.05,12.42-.01,2.57,3.99,2.57,3.98,0Z"/>
  <path d="M157.06,39.68c3.03,.55,3.56-4.02,.45-3.98-3.29,0-8.18,0-11.48,0-.04-9.57-.06-22.06-.05-31.96,.69-4.27-3.75-4.47-3.98-1.49-.01,.94,0,4.5,0,5.52-.02,8.71,.02,20.11,.05,28.43,.04,.93-.22,2.22,.57,2.91,.83,.91,2.46,.47,3.55,.57,3.04-.01,7.85,.01,10.88,0Z"/>
  <path d="M191.43,28.02c-.1-7.82-.09-18.26-.12-25.47,.11-2.87-4.41-2.61-3.98,.25,.02,5.95,.05,13.52,.07,20.45,.02,2.88,.05,4.85,.07,6.73-.87,5.16-8.9,7.65-13.07,3.78-3.66-2.62-2.64-5.45-2.83-9.19,.03-4.98-.03-12.81-.05-17.79,.04-.58-.03-3.34,0-3.88-.07-3.45-4.63-2.9-3.98,.89,.02,7.93,.04,17.56,.1,25.45-.23,5.39,6.73,10.75,11.93,10.44,6.06-.05,13.06-5.17,11.85-11.65Z"/>
  <path d="M236.08,27.95c-.95-.48-2.22,.06-2.58,1.04-3.71,7.48-16.7,9.1-22.81,3.18-8.2-6.95-6.32-22.27,4.03-26.51,6.63-2.8,15.85-.56,18.14,5.84,.8,2.92,5.01,1.64,3.83-1.19-3.95-11.38-22.21-13.12-29.92-3.68-11.63,11.68-2.52,34.59,14.41,33.05,4.74-.2,8.63-1.47,11.68-3.83,2.15-1.88,6.52-5.87,3.23-7.9Z"/>
  <path d="M20.61,60.8c-4.99-1.41-9.86-.87-16.35-.89-2.33-.56-2.78,1.63-2.58,3.43,0,7.86,0,20.34,0,28.23,0,0,0,3.98,0,3.98-.14,1.47,.03,3.58,1.99,3.53,1.95,.03,2.12-2.04,1.99-3.53,0,0,0-3.98,0-3.98v-9.64c5.59-.05,10.91,.17,15.31-1.29,8.64-2.26,8.49-17.94-.35-19.83Zm1.84,14.07c-4.11,4.29-10.48,2.64-16.8,3.08v-14.06c9.39-.21,21.43-1.34,16.8,10.98Z"/>
  <path d="M40.28,63.83c3.73,.06,13.44,.07,17.17,.1,3.01-.1,2.33-4.54-.6-3.98,0,0-1.54,0-1.54,0-3.45-.06-12.97-.07-16.43-.1-2.41-.23-2.75,1.57-2.58,3.53-.04,2.6,.03,13.39,0,16.2,.04,5.97,.05,10.79,.05,16.2-.27,3.47,1.04,3.67,4.13,3.53,2.71-.02,11.97,.01,14.59-.05,.27,0,1.74,0,1.99,0,2.69,.23,2.82-4,.15-3.98-3.56,.01-13.24,.07-16.87,.05,.02-4.84-.03-8.02-.05-13.31,2.53,0,12.4,0,14.94,0,1.57,.09,4.05,.15,4.03-2.04,.02-2.24-2.52-1.98-4.08-1.94-2.53,0-12.36,0-14.89,0v-14.22Z"/>
  <path d="M146.27,63.83c-3.73,.06-13.44,.07-17.17,.1-3.01-.1-2.33-4.54,.6-3.98,0,0,1.54,0,1.54,0,3.45-.06,12.97-.07,16.43-.1,2.41-.23,2.75,1.57,2.58,3.53,.04,2.6-.03,13.39,0,16.2-.04,5.97-.05,10.79-.05,16.2,.27,3.47-1.04,3.67-4.13,3.53-2.71-.02-11.97,.01-14.59-.05-.27,0-1.74,0-1.99,0-2.69,.23-2.82-4-.15-3.98,3.56,.01,13.24,.07,16.87,.05-.02-4.84,.03-8.02,.05-13.31-2.53,0-12.4,0-14.94,0-1.57,.09-4.05,.15-4.03-2.04-.02-2.24,2.52-1.98,4.08-1.94,2.53,0,12.36,0,14.89,0v-14.22Z"/>
  <path d="M95.13,99.96c5.98-.14,17.09,.03,23.06-.1,2.69,.32,2.92-4.01,.2-3.98-1.85,0-7.45,.08-9.42,.05-.03-9.78-.07-22.44-.05-32.55-.04-.95,.23-2.26-.57-2.96-1.17-1.23-3.5-.33-3.4,1.42,0,1.02,0,4.53,0,5.62-.02,8.7,.02,20.18,.05,28.48-2.05,.02-7.87-.06-9.86,.05-2.57-.01-2.57,3.99,0,3.98Z"/>
  <path d="M89.64,59.86c-5.98,.14-17.09-.03-23.06,.1-2.69-.32-2.92,4.01-.2,3.98,1.85,0,7.45-.08,9.42-.05,.03,9.78,.07,22.44,.05,32.55,.04,.95-.23,2.26,.57,2.96,1.17,1.23,3.5,.33,3.4-1.42,0-1.02,0-4.53,0-5.62,.02-8.7-.02-20.18-.05-28.48,2.05-.02,7.87,.06,9.86-.05,2.57,.01,2.57-3.99,0-3.98Z"/>
  <path d="M193.11,73.77c-.05-4.45-.03-8.16-.1-12.18,.05-2.58-4.03-2.58-3.98,0,.07,5.41,.1,11.87,.1,17.59-4.58-4.41-13.11-11.36-17.41-15.46-1.03-.99-1.91-1.82-2.63-2.49-.7-.64-1.25-1.69-2.34-1.59-2.04-.08-2.1,2.01-1.99,3.53,0,0,0,4.03,0,4.03,.03,3.71,.05,7.79,.05,12.23,.05,5.86,.04,11.05,.1,16.25,0,0,0,1.14,0,1.14-.34,1.86,2.08,3.24,3.4,1.79,.8-.73,.53-1.98,.57-2.93-.09-8.93-.09-20.27-.15-29.27,5.93,5.51,14.77,12.91,20.34,18.19-.01,2.98,.08,7.2,.05,10.34,.01,.38,0,1.72,0,2.09-.04,1.67,2.22,2.69,3.38,1.39,.93-.85,.51-2.38,.6-3.48-.02-6.63,.02-14.5,0-21.17Z"/>
  <path d="M251,73.77c.05-4.45,.03-8.16,.1-12.18-.05-2.58,3.99-2.58,3.94,0-.06,5.41-.1,11.87-.1,17.59,4.54-4.41,12.98-11.36,17.24-15.46,1.02-.99,1.89-1.82,2.61-2.49,.7-.64,1.23-1.69,2.31-1.59,2.02-.08,2.08,2.01,1.97,3.53,0,0,0,4.03,0,4.03-.03,3.71-.05,7.79-.05,12.23-.04,5.86-.04,11.05-.1,16.25,0,0,0,1.14,0,1.14,.33,1.86-2.05,3.24-3.37,1.79-.79-.73-.52-1.98-.57-2.93,.09-8.93,.09-20.27,.15-29.27-5.87,5.51-14.62,12.91-20.14,18.19,.01,2.98-.08,7.2-.05,10.34-.01,.38,0,1.72,0,2.09,.04,1.67-2.19,2.69-3.35,1.39-.92-.85-.5-2.38-.59-3.48,.01-6.63-.02-14.5,0-21.17Z"/>
  <path d="M92.68,37.19S79.11,1.43,79.11,1.36c-.28-.87-1.15-1.28-2.03-1.24-.84-.04-1.7,.36-1.99,1.24,0,.07-13.54,35.8-13.57,35.83-.41,1.03,.15,2.22,1.19,2.58,.99,.42,2.19-.18,2.53-1.19,.03-.03,11.73-30.91,11.73-30.91,0,0,.02-.06,.12-.06,.08,0,.12,.06,.12,.06,0,0,11.7,30.88,11.73,30.91,.35,1.02,1.54,1.61,2.53,1.19,1.04-.37,1.61-1.55,1.19-2.58Z"/>
  <path d="M219.47,59.66c-26.4,.61-25.68,37.46-.2,38.96,25.92-.45,26.34-38.1,.2-38.96Zm6.32,33.73c-3.82,1.78-7.8,1.69-11.31,.35-4.79-1.6-7.98-5.06-9.53-9.1-1.79-4.04-1.91-8.77,.65-13.18,1.6-3.05,4.3-5.56,8.12-6.85,3.46-1.33,6.97-1.31,10.12-.32,4.89,1.3,8.14,4.5,9.8,8.36,1.92,3.87,2.22,8.54-.09,13.1-1.46,3.29-4.05,6.09-7.76,7.63Z"/>
</svg>